<svg id="_лой_1" data-name="‘лой_1" xmlns="http://www.w3.org/2000/svg" viewBox="0 0 2977.76 1648"><defs><style>.cls-1{fill:#ebf3fa;}.cls-2,.cls-3{opacity:0.5;}.cls-3,.cls-7{fill:#afcdfb;}.cls-4{fill:#dfebfd;}.cls-5{fill:#f9ddbf;}.cls-6{fill:#88b9ff;}.cls-8{fill:#ea642f;}.cls-9{fill:#f99746;}.cls-10{fill:#ffebd9;}.cls-11{fill:#97c6ff;}.cls-12{fill:#bbd5f9;}.cls-13{fill:#fc7a4c;}.cls-14{fill:#f7a76b;}.cls-15{fill:#aec3ff;}.cls-16{fill:#2b478b;}.cls-17{fill:#fff;}.cls-18{fill:#ffb27d;}.cls-19{fill:#f3a36c;}.cls-20{fill:#163560;}.cls-21{fill:#e8945b;}.cls-22{fill:#ffe6cf;}.cls-23{fill:#f2c9a5;}.cls-24{fill:#b0d0ff;}.cls-25{fill:#2e3552;}.cls-26{fill:#2c3a64;}.cls-27{fill:#ef802e;}.cls-28{fill:#82b378;}.cls-29{fill:#ffb380;}.cls-30{fill:#8fa2ff;}.cls-31{fill:#ed985f;}</style></defs><path class="cls-1" d="M368.89,1719.65S168.5,1567,308.23,1202c82.37-215.17,360.25-182.13,346.19-568.59S1053-71.32,1646.1,145.67c193.33,70.73,284.25,175.91,432.15,118.78,286.52-110.67,678.32-65,690.7,290,19.64,563.27,311.26,311.92,335.1,722.84,8.12,140-10.09,284.14-159.58,442.39Z" transform="translate(-196.04 -75.17)"/><g class="cls-2"><path class="cls-3" d="M1571.8,624.94s-25.88-216.78-137-346.15c-14.76-17.19-43-6.25-42.54,16.41,0,.38,0,.76,0,1.15C1393.77,335,1518.14,498.14,1571.8,624.94Z" transform="translate(-196.04 -75.17)"/><path class="cls-3" d="M1585.3,687s-110.69-271-299.76-390.8c-11.53-7.31-27.14-4.66-34.87,6.59-5,7.33-7.3,18.78-1.65,36.65C1264.09,387.11,1475,547.53,1585.3,687Z" transform="translate(-196.04 -75.17)"/></g><path class="cls-4" d="M1317.44,530.65s-7,166.25-37.86,163S1300.74,509,1300.74,509,1169.23,403.4,1109.83,395.53c0,0,55.71,176.87,26.59,166.16s-95.63-192.07-95.63-192.07-145.27-63.36-190.52,20.94S833.93,529,855.11,539.81s165.92,42.48,157.82,60.35S900.42,625.39,850,595.9c0,0,25.59,162,106,172.76s116.12-32.29,165.72-24.72,82.15,28.95,54.75,36.41-107.82-20.5-155,3.81-83.77,37.54-14.16,69.5,203,53.06,242.25,2.93l4.92-6.26a30.21,30.21,0,0,1-4.92,6.26c11.66,11,23.17,53.2,30.52,85.24.86,5.36,2.45,12.87,5,23.16h0c.93,4.6,1.67,8.36,2.17,11,10.79,70.45-28.71,178.59-28.71,178.59l14.64,7.82c60.66-104.15,21.37-210.41,21.37-210.41-22.38-82.22-5.71-145.5-5.71-145.5s158.83-46.07,118-168.13C1407,638.34,1369.74,560.57,1317.44,530.65Z" transform="translate(-196.04 -75.17)"/><path class="cls-3" d="M2574,495.13c-4.47-93.67-159.73-98.9-159.73-98.9s-135.37,132.39-165.64,129.58S2342.24,390,2342.24,390c-55.88-18.1-216.78,19.84-216.78,19.84s-30.55,182.51-59.2,172.34S2101.55,422,2101.55,422c-58.9,4.41-124.67,57.51-124.67,57.51C1889.31,570.25,2010.39,678,2010.39,678s-12,63-66.44,126.32h0s-11.65,11.33-25.49,31.92l15.06,3.32q3.18-5.65,6.67-10.79a.07.07,0,0,1,0-.06l.1-.15c1.55-2.1,3.76-5.09,6.5-8.71v0h0c6.59-8,11.16-14,14.19-18.34l0,0c20-25.24,48-57.71,63-62.52a30.2,30.2,0,0,1-1.71-7.62c.55,2.43,1.11,5,1.71,7.62,13.61,60.92,140.5,98.53,215.57,99.61s48.22-26.06,16.79-67.46S2142,720.53,2120.89,702.36s16.73-23.34,63.8-9.11,60.47,67.38,136.2,91.79,166.7-108.11,166.7-108.11c-57.06,4.81-146.33-45.75-146-65s141.78,13.85,165.09,13.19S2578.45,588.8,2574,495.13Z" transform="translate(-196.04 -75.17)"/><path class="cls-5" d="M2024.31,537.77l-60.73,143.17-119.53,281.8c-1.35-.55-2.68-1.08-4-1.6a306.85,306.85,0,0,0-234.24,4.49L1588.57,932l0,0v0l-122.32-239-70.88-138.5a770.31,770.31,0,0,1,628.2-17h0C2023.79,537.56,2024.05,537.65,2024.31,537.77Z" transform="translate(-196.04 -75.17)"/><path class="cls-6" d="M1478.29,1069.14c-1.06,1.5-2.12,3-3.17,4.53a305.51,305.51,0,0,0-53.61,173.19v.15H960A764.65,764.65,0,0,1,1078.8,836.45l134.53,78.36Z" transform="translate(-196.04 -75.17)"/><path class="cls-7" d="M1605.78,965.63c-1.17.52-2.33,1-3.47,1.55l-.66.29a308.18,308.18,0,0,0-123.36,101.67l-265-154.33L1078.8,836.45a771.78,771.78,0,0,1,316.53-282l70.88,138.5,122.32,239v0l0,0Z" transform="translate(-196.04 -75.17)"/><path class="cls-8" d="M2035.18,1247v-.15a305.4,305.4,0,0,0-52-170.83c-.89-1.32-1.79-2.65-2.7-4l264.82-154.25,134.51-78.36A764.75,764.75,0,0,1,2496.67,1247Z" transform="translate(-196.04 -75.17)"/><path class="cls-9" d="M2379.79,839.46l-134.51,78.36-264.82,154.25a307.86,307.86,0,0,0-135.63-109c-.25-.12-.52-.22-.78-.33l119.53-281.8,60.73-143.17A771.17,771.17,0,0,1,2379.79,839.46Z" transform="translate(-196.04 -75.17)"/><path class="cls-10" d="M1844.83,963.07c-.25-.12-.52-.22-.78-.33-1.35-.55-2.68-1.08-4-1.6a306.85,306.85,0,0,0-234.24,4.49c-1.17.52-2.33,1-3.47,1.55l-136.1-274.26a614.33,614.33,0,0,1,497.37-12C1963.64,681,1844.83,963.07,1844.83,963.07Z" transform="translate(-196.04 -75.17)"/><path class="cls-11" d="M1475.12,1073.67a305.51,305.51,0,0,0-53.61,173.19H1115.65c0-120.41,37.69-237.33,97.68-332Z" transform="translate(-196.04 -75.17)"/><path class="cls-12" d="M1602.31,967.18l-.66.29a308.18,308.18,0,0,0-123.36,101.67c-1.06,1.5-2.12,3-3.17,4.53L1213.33,914.81c61.05-94.5,150.83-172.73,252.88-221.89Z" transform="translate(-196.04 -75.17)"/><path class="cls-13" d="M2337.46,1246.86h-302.8a313.53,313.53,0,0,0-51.5-172.74l262-155.9C2303.66,1013.48,2337.46,1126.13,2337.46,1246.86Z" transform="translate(-196.04 -75.17)"/><path class="cls-14" d="M1983.16,1076c-.89-1.32-1.79-2.65-2.7-4a307.86,307.86,0,0,0-135.63-109l118.75-282.13a617.49,617.49,0,0,1,281.7,236.88C2246.15,919.15,1983.16,1076,1983.16,1076Z" transform="translate(-196.04 -75.17)"/><path class="cls-15" d="M1927.45,1247h-398.2a199.25,199.25,0,0,1,109.82-178c5.18-2.6,10.51-5,15.94-7.15a197.73,197.73,0,0,1,39-11,200.36,200.36,0,0,1,103.13,9.26c1.63.58,3.23,1.21,4.84,1.85a199.22,199.22,0,0,1,125.48,185Z" transform="translate(-196.04 -75.17)"/><path class="cls-6" d="M1860.51,1247H1596.19a132,132,0,0,1,130.15-132.14c.67,0,1.33,0,2,0a131.78,131.78,0,0,1,42.1,6.85q2.71.91,5.36,1.93a132.25,132.25,0,0,1,84.7,123.38Z" transform="translate(-196.04 -75.17)"/><path class="cls-16" d="M1736.48,1232.6a34.34,34.34,0,0,1-19.77.79,32,32,0,0,1-3.11-1c-1-.37-2-.77-3-1.22a34.62,34.62,0,0,1-19.66-35.84,4,4,0,0,1,.17-.76l4.22-13.52h0l16.59-53.22,18.78-60.26,30.07-96.45,10.5-33.68v0h0v0L1829,752.18a4.19,4.19,0,0,1,5-2.82l7.07,1.8a4.19,4.19,0,0,1,3.07,4.85L1801,983.74l-19.29,101.7-12.49,65.78-9.78,51.57-1.38,7.26-.29,1.53a5.45,5.45,0,0,1-.22.79A34.54,34.54,0,0,1,1736.48,1232.6Z" transform="translate(-196.04 -75.17)"/><path class="cls-5" d="M1711.13,1190.83a15.7,15.7,0,1,1,9,20.31A15.7,15.7,0,0,1,1711.13,1190.83Z" transform="translate(-196.04 -75.17)"/><path class="cls-17" d="M1327.87,881.23H1332l13.66,17.62V881.23h4.4v25.49h-3.75l-14-18.14v18.14h-4.41Z" transform="translate(-196.04 -75.17)"/><path class="cls-17" d="M1355.51,894a13.33,13.33,0,1,1,13.29,13.19A13.06,13.06,0,0,1,1355.51,894Zm22,0c0-5-3.61-9.07-8.67-9.07s-8.59,4-8.59,9.07,3.6,9.07,8.66,9.07S1377.47,899,1377.47,894Z" transform="translate(-196.04 -75.17)"/><path class="cls-17" d="M1387.59,881.23H1399c6,0,9.47,3.2,9.47,8.12,0,4.18-2.51,6.7-6.08,7.72l6.88,9.65h-5.28l-6.33-8.89h-5.54v8.89h-4.48Zm11,12.63c3.2,0,5.24-1.67,5.24-4.33s-2-4.23-5.28-4.23h-6.52v8.56Z" transform="translate(-196.04 -75.17)"/><path class="cls-17" d="M1413.92,881.23h4.77l7.76,12,7.76-12H1439v25.49h-4.48V888.44l-8,12h-.15l-8-11.94v18.21h-4.41Z" transform="translate(-196.04 -75.17)"/><path class="cls-17" d="M1454.56,881h4.15l11.22,25.68h-4.73l-2.59-6.16h-12l-2.63,6.16h-4.59Zm6.41,15.55-4.4-10.19-4.37,10.19Z" transform="translate(-196.04 -75.17)"/><path class="cls-17" d="M1474.3,881.23h4.48v21.41h13.4v4.08H1474.3Z" transform="translate(-196.04 -75.17)"/><path class="cls-17" d="M1650,692.77h18.9v4H1654.5v6.63h12.78v4H1654.5v6.85h14.61v4H1650Z" transform="translate(-196.04 -75.17)"/><path class="cls-17" d="M1681.78,705.3l-8.93-12.53h5.29l6.33,9.14,6.38-9.14H1696l-8.88,12.46,9.24,13h-5.28l-6.7-9.65-6.73,9.65h-5.14Z" transform="translate(-196.04 -75.17)"/><path class="cls-17" d="M1698,705.52a12.91,12.91,0,0,1,13.15-13.19,13.29,13.29,0,0,1,10,4l-2.88,3.32a10.13,10.13,0,0,0-7.14-3.17c-4.88,0-8.41,4-8.41,9.07s3.53,9.07,8.41,9.07c3.13,0,5.14-1.28,7.32-3.32l2.88,2.91A13.15,13.15,0,0,1,1711,718.7,12.83,12.83,0,0,1,1698,705.52Z" transform="translate(-196.04 -75.17)"/><path class="cls-17" d="M1726,692.77h18.9v4H1730.5v6.63h12.79v4H1730.5v6.85h14.61v4H1726Z" transform="translate(-196.04 -75.17)"/><path class="cls-17" d="M1748.71,714.55l2.7-3.21a11.71,11.71,0,0,0,8,3.32c2.76,0,4.51-1.28,4.51-3.28,0-1.82-1-2.8-5.75-3.93-5.43-1.28-8.49-2.88-8.49-7.65,0-4.37,3.64-7.39,8.71-7.39a14.13,14.13,0,0,1,9.24,3.2l-2.4,3.39a11.58,11.58,0,0,0-6.92-2.62c-2.62,0-4.15,1.34-4.15,3.09,0,2,1.17,2.84,6,4,5.39,1.31,8.19,3.24,8.19,7.54,0,4.77-3.75,7.61-9.1,7.61A15.72,15.72,0,0,1,1748.71,714.55Z" transform="translate(-196.04 -75.17)"/><path class="cls-17" d="M1771.65,714.55l2.7-3.21a11.71,11.71,0,0,0,8.05,3.32c2.76,0,4.51-1.28,4.51-3.28,0-1.82-1-2.8-5.75-3.93-5.43-1.28-8.49-2.88-8.49-7.65,0-4.37,3.65-7.39,8.71-7.39a14.17,14.17,0,0,1,9.25,3.2l-2.41,3.39a11.58,11.58,0,0,0-6.92-2.62c-2.62,0-4.15,1.34-4.15,3.09,0,2,1.17,2.84,6,4,5.39,1.31,8.19,3.24,8.19,7.54,0,4.77-3.75,7.61-9.1,7.61A15.72,15.72,0,0,1,1771.65,714.55Z" transform="translate(-196.04 -75.17)"/><path class="cls-17" d="M1643.18,736.47H1648l6.08,18.9,6.27-19h3.78l6.27,19,6.08-18.9h4.7l-8.89,25.68h-3.86l-6.26-18.32-6.27,18.32h-3.86Z" transform="translate(-196.04 -75.17)"/><path class="cls-17" d="M1685.78,736.47h18.91v4h-14.43v6.62h12.79v4h-12.79V758h14.61v4h-19.09Z" transform="translate(-196.04 -75.17)"/><path class="cls-17" d="M1710.44,736.47h4.48V762h-4.48Z" transform="translate(-196.04 -75.17)"/><path class="cls-17" d="M1720.6,749.22A13,13,0,0,1,1733.75,736a13.76,13.76,0,0,1,9.79,3.46l-2.84,3.39a10,10,0,0,0-7.14-2.73c-4.7,0-8.27,4.11-8.27,9.07,0,5.24,3.46,9.1,8.67,9.1a10.39,10.39,0,0,0,6.16-1.93v-4.77h-6.52v-3.9h10.85v10.71a16.24,16.24,0,0,1-10.63,4C1725.84,762.4,1720.6,756.72,1720.6,749.22Z" transform="translate(-196.04 -75.17)"/><path class="cls-17" d="M1750.28,736.47h4.48v10.6h12.16v-10.6h4.48V762h-4.48V751.22h-12.16V762h-4.48Z" transform="translate(-196.04 -75.17)"/><path class="cls-17" d="M1784.22,740.62h-8.09v-4.15h20.69v4.15h-8.09V762h-4.51Z" transform="translate(-196.04 -75.17)"/><path class="cls-17" d="M1955.38,894a13.33,13.33,0,1,1,13.29,13.19A13.06,13.06,0,0,1,1955.38,894Zm22,0c0-5-3.61-9.07-8.67-9.07s-8.59,4-8.59,9.07,3.6,9.07,8.66,9.07S1977.34,899,1977.34,894Z" transform="translate(-196.04 -75.17)"/><path class="cls-17" d="M1987.46,881.23h11.44c2.91,0,5.2.8,6.66,2.25a5.75,5.75,0,0,1,1.71,4.3,6.07,6.07,0,0,1-3.64,5.68c3,1,5.06,2.73,5.06,6.27,0,4.55-3.75,7-9.43,7h-11.8ZM1998,892c2.87,0,4.8-1.13,4.8-3.53,0-2-1.6-3.25-4.48-3.25h-6.44V892Zm1.31,10.78c3.06,0,4.91-1.2,4.91-3.57,0-2.15-1.71-3.42-5.24-3.42h-7.1v7Z" transform="translate(-196.04 -75.17)"/><path class="cls-17" d="M2013.75,881.23h18.9v4h-14.42v6.63H2031v4h-12.78v6.85h14.6v4h-19.08Z" transform="translate(-196.04 -75.17)"/><path class="cls-17" d="M2036.44,903l2.69-3.2a11.75,11.75,0,0,0,8,3.31c2.77,0,4.52-1.27,4.52-3.28,0-1.82-1-2.8-5.75-3.93-5.43-1.27-8.49-2.88-8.49-7.65,0-4.37,3.64-7.39,8.7-7.39a14.09,14.09,0,0,1,9.25,3.21l-2.4,3.38a11.58,11.58,0,0,0-6.92-2.62c-2.62,0-4.15,1.35-4.15,3.09,0,2,1.16,2.85,6,4,5.39,1.31,8.2,3.24,8.2,7.54,0,4.77-3.75,7.61-9.11,7.61A15.71,15.71,0,0,1,2036.44,903Z" transform="translate(-196.04 -75.17)"/><path class="cls-17" d="M2061.71,881.23h4.48v25.49h-4.48Z" transform="translate(-196.04 -75.17)"/><path class="cls-17" d="M2079.27,885.38h-8.09v-4.15h20.69v4.15h-8.09v21.34h-4.51Z" transform="translate(-196.04 -75.17)"/><path class="cls-17" d="M2104.1,896.67,2094,881.23h5.28l7.14,11.28,7.21-11.28h5.13l-10.12,15.33v10.16h-4.52Z" transform="translate(-196.04 -75.17)"/><path class="cls-17" d="M2049.69,1090.66h18.91v4h-14.43v6.62H2067v4h-12.79v6.85h14.61v4h-19.09Z" transform="translate(-196.04 -75.17)"/><path class="cls-17" d="M2081.45,1103.19l-8.92-12.53h5.28l6.33,9.14,6.38-9.14h5.13l-8.88,12.45,9.25,13h-5.28l-6.7-9.65-6.74,9.65h-5.14Z" transform="translate(-196.04 -75.17)"/><path class="cls-17" d="M2106.9,1094.81h-8.08v-4.15h20.68v4.15h-8.08v21.34h-4.52Z" transform="translate(-196.04 -75.17)"/><path class="cls-17" d="M2124.24,1090.66h11.36c6,0,9.47,3.2,9.47,8.12,0,4.19-2.51,6.7-6.08,7.72l6.88,9.65h-5.28l-6.34-8.88h-5.53v8.88h-4.48Zm11,12.64c3.21,0,5.25-1.68,5.25-4.34s-2-4.22-5.28-4.22h-6.52v8.56Z" transform="translate(-196.04 -75.17)"/><path class="cls-17" d="M2150.57,1090.66h18.9v4h-14.42v6.62h12.78v4h-12.78v6.85h14.6v4h-19.08Z" transform="translate(-196.04 -75.17)"/><path class="cls-17" d="M2175,1090.66h4.77l7.76,12,7.75-12H2200v25.49h-4.48v-18.28l-8,12h-.15l-8-12v18.21H2175Z" transform="translate(-196.04 -75.17)"/><path class="cls-17" d="M2206.58,1090.66h18.9v4h-14.43v6.62h12.79v4h-12.79v6.85h14.61v4h-19.08Z" transform="translate(-196.04 -75.17)"/><path class="cls-17" d="M2231,1090.66h4.47v21.41h13.41v4.08H2231Z" transform="translate(-196.04 -75.17)"/><path class="cls-17" d="M2256.29,1106.1l-10.13-15.44h5.28l7.14,11.29,7.21-11.29h5.13L2260.8,1106v10.16h-4.51Z" transform="translate(-196.04 -75.17)"/><path class="cls-17" d="M2078.06,1147.11a13.33,13.33,0,1,1,13.3,13.18A13.07,13.07,0,0,1,2078.06,1147.11Zm22,0c0-5-3.6-9.07-8.66-9.07s-8.6,4-8.6,9.07a8.73,8.73,0,0,0,8.67,9.06C2096.49,1156.17,2100,1152.13,2100,1147.11Z" transform="translate(-196.04 -75.17)"/><path class="cls-17" d="M2110.15,1134.36h11.43c2.91,0,5.21.8,6.67,2.26a5.79,5.79,0,0,1,1.71,4.3,6.09,6.09,0,0,1-3.64,5.68c3,1,5.06,2.73,5.06,6.26,0,4.55-3.75,7-9.43,7h-11.8Zm10.52,10.74c2.88,0,4.81-1.13,4.81-3.53,0-2-1.61-3.24-4.48-3.24h-6.45v6.77Zm1.31,10.78c3.06,0,4.92-1.2,4.92-3.57,0-2.14-1.71-3.42-5.25-3.42h-7.1v7Z" transform="translate(-196.04 -75.17)"/><path class="cls-17" d="M2136.44,1134.36h18.9v4h-14.42V1145h12.78v4h-12.78v6.85h14.6v4h-19.08Z" transform="translate(-196.04 -75.17)"/><path class="cls-17" d="M2159.12,1156.14l2.7-3.21a11.71,11.71,0,0,0,8,3.32c2.77,0,4.51-1.28,4.51-3.28,0-1.82-1-2.8-5.75-3.93-5.43-1.28-8.49-2.88-8.49-7.65,0-4.37,3.65-7.39,8.71-7.39a14.12,14.12,0,0,1,9.25,3.2l-2.4,3.39a11.62,11.62,0,0,0-6.93-2.63c-2.62,0-4.15,1.35-4.15,3.1,0,2,1.17,2.84,6.05,4,5.39,1.31,8.19,3.24,8.19,7.54,0,4.77-3.75,7.61-9.1,7.61A15.72,15.72,0,0,1,2159.12,1156.14Z" transform="translate(-196.04 -75.17)"/><path class="cls-17" d="M2184.4,1134.36h4.48v25.49h-4.48Z" transform="translate(-196.04 -75.17)"/><path class="cls-17" d="M2202,1138.51h-8.08v-4.15h20.68v4.15h-8.08v21.34H2202Z" transform="translate(-196.04 -75.17)"/><path class="cls-17" d="M2226.79,1149.8l-10.13-15.44h5.28l7.14,11.29,7.21-11.29h5.14l-10.13,15.33v10.16h-4.51Z" transform="translate(-196.04 -75.17)"/><path class="cls-18" d="M2556.53,1614.46s5.93,63.69-1.3,67.25l-92.56-.19s0-10.68,14.87-13,41-11.08,45.4-30.46S2556.53,1614.46,2556.53,1614.46Z" transform="translate(-196.04 -75.17)"/><path class="cls-18" d="M2568.49,1450.17c-3.4,92.77-10.25,180.53-10.25,180.53s-4.38,4.7-18.28,8.62c-10,2.82-17-1.31-17-1.31s-6.46-51.93-8.47-64.22c-2.12-13-89.57-274.1-78.25-370.35,8-67.57,44.74-111.65,44.74-111.65h72.2s.09,50,6.21,117c1.74,19,4,39.39,6.8,60.4C2571.64,1309.74,2571,1381.33,2568.49,1450.17Z" transform="translate(-196.04 -75.17)"/><path class="cls-19" d="M2568.49,1450.17c-16-40.38-60.51-153-65.7-172.45A84.72,84.72,0,0,0,2481.2,1240l78.17-31.17c1.74,19,4,39.39,6.8,60.4C2571.64,1309.74,2571,1381.33,2568.49,1450.17Z" transform="translate(-196.04 -75.17)"/><path class="cls-20" d="M2539.64,743.75c-19.44-4.85-32,4.1-32,4.1-54.42,6.41-55.14,71.82-49.36,92.89s13.65,43.3-3.41,76.53c-49.28,96,94.57,65.41,94.57,65.41-14-64,67.9-58.94,66.09-51.69C2719,931.14,2583.84,754.78,2539.64,743.75Z" transform="translate(-196.04 -75.17)"/><path class="cls-18" d="M2428.17,1172.51s9.23,21.06,9.58,26.88-2.42,15.07-4.35,16-3-11.08-3.86-10.42,2.28,19.67-.91,21.65-15.23-15.91-17-24.32,0-22.17,0-22.17Z" transform="translate(-196.04 -75.17)"/><path class="cls-18" d="M2521.87,985.64s-13.56,15.13-25.71,40.26a194.66,194.66,0,0,0-13.2,35.64c-8.42,32.33-41.42,95-52.71,115.88-2.39,4.43-3.8,7-3.8,7l-15-2.85s9.29-84.09,15.75-108c6.76-25,8.83-102.93,19.23-128.51,13.46-33.1,41.93-37.42,41.93-37.42Z" transform="translate(-196.04 -75.17)"/><path class="cls-19" d="M2496.16,1025.9a194.66,194.66,0,0,0-13.2,35.64c-8.42,32.33-24.06,77.21-52.71,115.88,0,0,4.71-51.84,14.37-67.74s10.85-116.34,10.85-116.34Z" transform="translate(-196.04 -75.17)"/><path class="cls-18" d="M2696,1608.08s16.47,15,13.26,25.72-18.09,17.8-20.09,30.86-10,20.18-17.28,20.18h-34.48s-5.33-9.19,7.53-12,17.71-18.11,16.9-32.36,1.21-33.23,1.21-33.23l27.32-6.33Z" transform="translate(-196.04 -75.17)"/><path class="cls-18" d="M2594,1089.31s58.14,26.25,71.53,96.4c14.59,76.43-21.08,161.74-13,197.74s37.79,105.25,37.79,217.51c0,0-3.09,6.44-12.62,9.86-3,1.1-11.46,4.08-15.42,5,0,0-3.73-14.27-8.89-25.14-23.29-49.1-90.36-156.88-93.64-184-2.32-19.16-22.51-146-66.57-220.34-10.58-17.87,6.49-88.89,6.49-88.89Z" transform="translate(-196.04 -75.17)"/><path class="cls-18" d="M2622.49,1157.55c-19-42.72-30.7-55-28.47-68.24,1.65-9.86-5.05-184-5.05-184-2.26-.7-6.79-1.33-9.26-1.88-7.82-1.74-13-7.79-17-14.76-5-8.88-10.38-26.54-10.32-43.34l-18.39,1-26.11,8.51s6.53,16.08,6.55,28.24v.31a23.57,23.57,0,0,1-17,22.81c-5.18,1.5-9.69,2.78-9.69,2.78s-15.07,43-17.94,87.18,27.39,63.38-.23,151.67C2441.39,1238,2633,1181.15,2622.49,1157.55Z" transform="translate(-196.04 -75.17)"/><path class="cls-21" d="M2508.83,858.3s5.62,12.63,5.64,24.79c23-3.41,33.07-21.89,38-33.5Z" transform="translate(-196.04 -75.17)"/><path class="cls-18" d="M2615.09,982.36s9.16,88.1,16.43,110.6c9.48,29.3,0,44.81,0,44.81l-92.07,22.71L2458.6,1149s-4.27-18.42-2.29-33.44c2-15.34,10.27-27.54,10.44-50.64.32-42.92-22.12-49.38-14.55-85.36,8.2-38.95,35.55-70.58,35.55-70.58s44,43.06,101.22-3.65Z" transform="translate(-196.04 -75.17)"/><path class="cls-18" d="M2509.33,876.27s53-11.72,45.23-44.64-6.22-56.61-40.42-50.51-37.77,20.21-37.84,31.83S2495.33,878.47,2509.33,876.27Z" transform="translate(-196.04 -75.17)"/><path class="cls-20" d="M2489.88,786.05s23.68,35.16,47.24,35.58,31.77-7.83,31.77-7.83-20.25-9.47-29.42-32.24C2539.47,781.56,2496.42,765.07,2489.88,786.05Z" transform="translate(-196.04 -75.17)"/><path class="cls-20" d="M2494.22,788.33s-9.77,6.57-12.32,15.44a54.62,54.62,0,0,0,.06,31.92s-17.16-23.65-8.45-41.41C2482.75,775.44,2494.22,788.33,2494.22,788.33Z" transform="translate(-196.04 -75.17)"/><path class="cls-22" d="M2669.05,1230.92s-45-10.91-93-4.17c-19,2.65-38.49,8.06-55.89,18,0,0-51.83-10.45-84.42-6.11,0,0-10.8-43.13,18.52-104.65,0,0,62.83,4.55,143.67-7,12.25-1.74,24.92-3.86,37.85-6.42C2635.74,1120.58,2677.69,1164.86,2669.05,1230.92Z" transform="translate(-196.04 -75.17)"/><path class="cls-22" d="M2624.56,1057.81q-13.5,3.56-25.66,6.35c-109.57,25.31-140.08,8.09-140.08,8.09s-8.37-47.08-3.35-77.21,32.9-87.47,32.9-87.47l10.76-1.91s-7.85,33-9.24,44.18c-2.06,16.46,15.09,20.95,38.19,16.8,36.73-6.61,45.81-65.29,45.81-65.29a40,40,0,0,1,15.83,2.71c-5.31,32.7.61,62.53,8.7,85.42,0,0,0,0,0,0,9.88,27.89,23,45.49,23,45.49Z" transform="translate(-196.04 -75.17)"/><path class="cls-23" d="M2669.05,1230.92s-45-10.91-93-4.17c38.88-41.88,21.88-99.75,21.88-99.75,12.25-1.74,24.92-3.86,37.85-6.42C2635.74,1120.58,2677.69,1164.86,2669.05,1230.92Z" transform="translate(-196.04 -75.17)"/><path class="cls-21" d="M2513.33,1099.94c0,2.15-1.21,3.9-2.7,3.9s-2.71-1.75-2.71-3.9,1.21-3.91,2.71-3.91S2513.33,1097.78,2513.33,1099.94Z" transform="translate(-196.04 -75.17)"/><path class="cls-18" d="M2589.72,904.06s24.31,6.45,33.19,21.51,60.42,93.74,67.43,133.08-41.53,134.75-41.53,134.75l-13.08-9s5.77-109.52,0-120.74c-6.73-13.11-14.32-28.66-14.32-28.66s-29.15-66.64-29.87-69.91C2583.54,929.25,2589.72,904.06,2589.72,904.06Z" transform="translate(-196.04 -75.17)"/><path class="cls-18" d="M2636.08,1177.42s-8.52,2.44-13.17,5.23-15.39,13.82-12.88,15.77,9.3-5,12.88-5-16.51,18.69-14.83,22.6,24.7,2,32.3-4.47,12-28.88,12-28.88Z" transform="translate(-196.04 -75.17)"/><path class="cls-23" d="M2624.56,1057.81q-13.5,3.56-25.66,6.35c-12.42-23.64,1-70.18-.47-74.64,9.88,27.89,23,45.49,23,45.49Z" transform="translate(-196.04 -75.17)"/><rect class="cls-24" x="2073.12" y="1606.32" width="582.49" height="21.16"/><rect class="cls-25" x="2095.22" y="1627.48" width="18.41" height="13.47"/><rect class="cls-25" x="2595.72" y="1627.48" width="18.41" height="13.47"/><path class="cls-25" d="M2412.71,1364.28h-162.5a8.86,8.86,0,0,1-8.15-5.4L2227.25,1324a5.86,5.86,0,0,1,5.4-8.15h165.64l18.16,42.77A4.07,4.07,0,0,1,2412.71,1364.28Z" transform="translate(-196.04 -75.17)"/><path class="cls-24" d="M2414.14,1364.28H2260.08a12,12,0,0,1-11-7.29l-15.36-36.19a3.55,3.55,0,0,1,3.27-4.94h161.44a11.64,11.64,0,0,1,10.7,7.08l12.66,29.82A8.29,8.29,0,0,1,2414.14,1364.28Z" transform="translate(-196.04 -75.17)"/><polygon class="cls-17" points="2213.44 1273.68 2060.69 1273.68 2048.97 1246.06 2201.72 1246.06 2213.44 1273.68"/><rect class="cls-24" x="2123.33" y="1280.67" width="15.06" height="329"/><path class="cls-17" d="M1151.83,1114.83v-13.49H1157v13.36c0,3.84,1.92,5.83,5.09,5.83s5.1-1.92,5.1-5.67v-13.52h5.19v13.32c0,7.15-4,10.66-10.35,10.66S1151.83,1121.78,1151.83,1114.83Z" transform="translate(-196.04 -75.17)"/><path class="cls-17" d="M1177.7,1101.34h4.78l11.07,14.54v-14.54h5.12V1125h-4.42l-11.43-15v15h-5.12Z" transform="translate(-196.04 -75.17)"/><path class="cls-17" d="M1204.34,1101.34h9.21c7.41,0,12.54,5.09,12.54,11.8S1221,1125,1213.55,1125h-9.21Zm9.21,18.92a7.12,7.12,0,0,0,0-14.23h-4v14.23Z" transform="translate(-196.04 -75.17)"/><path class="cls-17" d="M1230.71,1101.34h17.81V1106h-12.65v4.79H1247v4.62h-11.13v5h12.82V1125h-18Z" transform="translate(-196.04 -75.17)"/><path class="cls-17" d="M1253.31,1101.34h10.79a9.42,9.42,0,0,1,6.88,2.4,7.47,7.47,0,0,1,2,5.46,7.34,7.34,0,0,1-5.06,7.32l5.77,8.43h-6.07l-5.13-7.56h-4V1125h-5.19Zm10.45,11.47c2.53,0,4-1.35,4-3.41,0-2.22-1.55-3.37-4.08-3.37h-5.16v6.78Z" transform="translate(-196.04 -75.17)"/><path class="cls-17" d="M1275.37,1101.34h5.56l4.89,16,5.29-16.06h4.45l5.3,16.06,4.89-16h5.43l-8.06,23.78h-4.52l-5.33-15.45-5.33,15.45h-4.52Z" transform="translate(-196.04 -75.17)"/><path class="cls-17" d="M1315,1101.34h17.8V1106h-12.64v4.79h11.12v4.62h-11.12v5H1333V1125h-18Z" transform="translate(-196.04 -75.17)"/><path class="cls-17" d="M1337.86,1101.34h5.19V1125h-5.19Z" transform="translate(-196.04 -75.17)"/><path class="cls-17" d="M1347.91,1113.14a12.1,12.1,0,0,1,12.37-12.2,13,13,0,0,1,9.28,3.23l-3.27,3.95a8.68,8.68,0,0,0-6.17-2.39c-3.78,0-6.78,3.33-6.78,7.41,0,4.32,3,7.49,7.15,7.49a8.28,8.28,0,0,0,4.89-1.42v-3.37h-5.23v-4.48h10.25v10.25a15.31,15.31,0,0,1-10.08,3.74C1353,1125.35,1347.91,1120.19,1347.91,1113.14Z" transform="translate(-196.04 -75.17)"/><path class="cls-17" d="M1375.39,1101.34h5.2v9.34h9.57v-9.34h5.2V1125h-5.2v-9.48h-9.57V1125h-5.2Z" transform="translate(-196.04 -75.17)"/><path class="cls-17" d="M1406.52,1106.13h-7.18v-4.79h19.56v4.79h-7.19V1125h-5.19Z" transform="translate(-196.04 -75.17)"/><path class="cls-26" d="M953.5,896.72s-21.18-36.66-67-11.65c-32.46,17.7-25.62,47.46-34.27,58.7s-57,16.2-43.07,74.56c8.46,35.56,120.26,85.68,113.65,115.74,0,0,55.38-67.35,11.24-97.86-20-13.83-31.46-40.49-30-46.17S953.5,896.72,953.5,896.72Z" transform="translate(-196.04 -75.17)"/><path class="cls-18" d="M913.13,1072.94s30.64,126.74,60.71,152.08c9.51,8,28.21,24.13,43.78,34.82,14,9.62,18.68,11.1,18.68,11.1l-13,12.37s-2.63-5-11.1-8.19c-22.44-8.35-68-22.36-80.14-36.61-16.69-19.62-62.39-118-62.39-118Z" transform="translate(-196.04 -75.17)"/><path class="cls-27" d="M1262.48,1581.33s-11.78,26-54.78,46.37h0c-18.07,8.54-41.64,16.09-72.18,20.27-94.09,44.85-142.76,14-142.76,14-125.24-50.34-177-219.17-86.1-288,26.57-20.14,53.31-26.17,76.71-25.66A194.44,194.44,0,0,0,1098.16,1314c19.29-13.28,44.95-22.91,78.21-20.65a111.13,111.13,0,0,1,42.67,11.56l1.51.76C1301.57,1347.71,1328.67,1486.17,1262.48,1581.33Z" transform="translate(-196.04 -75.17)"/><path class="cls-9" d="M1262.48,1581.33s-11.78,26-54.78,46.37h0c-50.8,20-34.17-7.64-90.73,9.27s-95.72,8.34-156.75-67.73-57-166.27-4.11-192.36,94.17,9.52,151-57.27c39.25-46.15,112-14.76,112-14.76l1.51.76C1301.57,1347.71,1328.67,1486.17,1262.48,1581.33Z" transform="translate(-196.04 -75.17)"/><path class="cls-28" d="M1120.29,1201.93a353.77,353.77,0,0,1,55.9,54.7s-59.86,15.61-82.4.33c-26.6-18-36.36-16.94-61.6-17.6C1032.19,1239.36,1085.93,1175,1120.29,1201.93Z" transform="translate(-196.04 -75.17)"/><path class="cls-16" d="M1046.57,1356.18h0c-22-25.3-25.68-63.74-24.91-91.53.62-22.11,5.22-53.1,7.61-67.88a3.51,3.51,0,0,1,6.36-1.44l4.8,6.87a28.74,28.74,0,0,1,4.28,23.65c-6.48,25-17.4,82.13,6.35,119.39C1053.73,1349.43,1050.49,1360.72,1046.57,1356.18Z" transform="translate(-196.04 -75.17)"/><path class="cls-29" d="M1168,1321.57s44.34.08,54.59,30.53-20.09,36.4-39.81,25.18S1143.7,1327.68,1168,1321.57Z" transform="translate(-196.04 -75.17)"/><path class="cls-15" d="M625.2,1295.61l.84,1.49c6.7,11.65,22.08,40.2,39,71.45,8,14.82,16.4,30.25,24.36,44.77,13.71,25.06,26.19,47.38,33.47,59.17,7.4,12,12.85,20.42,15.05,23.79l0,0a5.52,5.52,0,0,1,.72,3.47,182,182,0,0,0,.48,31.43c10.22,101.65,78.77,156.12,78.77,156.12l20.38,3S809.47,1583.48,801,1523.08c-1.44-10.24-2.06-18.54-1.56-23.95,1.51-15.74-1.29-38.84-6.58-65.37-9.41-47.15-26.67-105-41.67-151.33-.95-3-29.62-106.63-29.62-106.63-24,21-111.79,29.7-111.79,29.7S594.87,1241.67,625.2,1295.61Z" transform="translate(-196.04 -75.17)"/><path class="cls-16" d="M881.08,1716.12H796s-2-13,2.4-22.8c4.26-9.43,10.33-9.73.78-24.53,5.4,5.57,22.78,7.87,35.08,6.21,1.5,2.45,9.71,18.84,14.74,22.45C854.58,1701.45,879.37,1700,881.08,1716.12Z" transform="translate(-196.04 -75.17)"/><path class="cls-30" d="M625.2,1295.61l.84,1.49c6.7,11.65,43,78.61,59.9,109.86-19.63-80.75-6-161.51-6-161.51Z" transform="translate(-196.04 -75.17)"/><path class="cls-26" d="M941.9,891.56c.56-2.23-48.58,22.21-51.07,25-23.05,25.57-16.48,58.93-3.29,59.25,8.46.2,6.82,14.26,6.82,14.26l94.21-39.85S977.23,884,941.9,891.56Z" transform="translate(-196.04 -75.17)"/><path class="cls-5" d="M910.24,1053.91s14.34,28.64,12.55,51.88c0,0-17.29,27.29-62.13,34.2C860.66,1140,899.21,1053.89,910.24,1053.91Z" transform="translate(-196.04 -75.17)"/><path class="cls-15" d="M691.51,1211.83l.29-15.91c-31.7,4-109.3-37.87-109.3-37.87s-33.16,22-37.7,85c-2.21,30.74-16.23,160.76-17.78,199.58-.56,14.07-.75,24.11-.82,28.13a.08.08,0,0,1,0,0,5.56,5.56,0,0,1-1.35,3.27,181.14,181.14,0,0,0-17.17,26.33c-48.37,90-23.08,212.26-23.08,212.26l11.23-2.85s40.9-126.76,67.63-181.59c4.54-9.3,8.66-16.53,12.1-20.72,10-12.21,20.65-32.94,31.1-57.89C626.41,1402.49,691.51,1211.83,691.51,1211.83Z" transform="translate(-196.04 -75.17)"/><path class="cls-16" d="M552.25,1716.12H467.19s-2-13,2.41-22.8c4.25-9.43,10.92-13.72,9.33-25.14,5.4,5.56,14.21,11.79,26.51,10.14,1.5,2.44,9.72,15.52,14.76,19.13C525.76,1701.45,550.54,1700,552.25,1716.12Z" transform="translate(-196.04 -75.17)"/><path class="cls-5" d="M854.92,1158.26c-11.43,2,1.87,11-13.85,12.74-22.37,2.44-45.46,4.11-57.56,8.93-4.41,1.76-7.36,3.94-8.28,6.71-5.24,15.77-38.45,42.86-38.45,42.86-148.12-6.74-157.66-72.75-157.66-72.75,96.13-93.36,177.91-144.25,245.5-150.55,16.45-1.53,38.62.53,49,5.16,23.63,10.52,36.59,42.55,36.59,42.55S898.33,1150.85,854.92,1158.26Z" transform="translate(-196.04 -75.17)"/><path class="cls-23" d="M841.07,1171c-22.37,2.44-45.46,4.11-57.56,8.93-4.94-73.87,29.92-129.43,29.92-129.43S836.17,1143,841.07,1171Z" transform="translate(-196.04 -75.17)"/><path class="cls-18" d="M860.37,1038s-56.25-3.07-66.24,32.25,18.75,176.26,24.94,190.81c11.28,26.49,64.76,105.55,64.76,105.55l19.43-5.9s-34.43-119.2-42.6-130.63C847.83,1212.13,877.2,1053.36,860.37,1038Z" transform="translate(-196.04 -75.17)"/><path class="cls-18" d="M895.33,1337.3s6.45,19,8.74,25.83c1.21,3.6,4.89,5.83,6.2,7.43,3.78,4.62,14.79,15.81,15,22.35,0,0-.55,2.91-2.91,2.38-1.94-.43-7.79-6-12.16-7.63a2.34,2.34,0,0,0-3.13,1.72c-.61,3-1.33,8.47.27,13.33,1.34,4.1,4.47,23.51,1,23.61-11.48.34-17.92-16.66-21.66-25.91-2.12-5.23-2.15-16.67-1.65-26.82s-13.11-29.19-13.11-29.19Z" transform="translate(-196.04 -75.17)"/><path class="cls-5" d="M783,1117.46c.15.83,53.23,9.76,86.43-7.09,0,0,27.74-86.89-11.9-82.73s-63.1,16.64-64.1,35.62S783,1117.46,783,1117.46Z" transform="translate(-196.04 -75.17)"/><path class="cls-18" d="M872.38,1017.45c4.23,13.24,18.32,51,37.86,36.46-.66-2.82,3.44-11,8.28-19.32,6.19-10.63,13.55-21.5,13.55-21.5L900.24,985.2l-1.9-1.66c-8.33,14.53-16.51,21.53-23.68,26.88A6.36,6.36,0,0,0,872.38,1017.45Z" transform="translate(-196.04 -75.17)"/><path class="cls-31" d="M932.07,1013.1s-7.36,10.84-13.55,21.49c-19.78-12.2-19.81-36.7-18.28-49.39Z" transform="translate(-196.04 -75.17)"/><path class="cls-18" d="M933,1027.08s-48-26.73-30.93-56.4,22.43-53.09,53.82-37.27,30.78,30.54,27.48,41.83S945.89,1033.27,933,1027.08Z" transform="translate(-196.04 -75.17)"/><path class="cls-26" d="M991.44,957.94c-2.21-13.18-8.9-14.43-13.56-13.55-17.74-29.34-46.73-17.89-46.73-17.89-15.48,19.43-37.87,22.74-37.87,22.74s5.58,10.38,28.55,16.8c7,2,15,.77,22.66-1.82a128.12,128.12,0,0,1-32.6,12.29c30.27,2.77,59.07-24.9,62.06-27.86,1.39,4.29,3.84,13.27,2.38,19.83-2,8.92-1.63,16.72-5.08,27.17C971.25,995.65,994.74,977.69,991.44,957.94Z" transform="translate(-196.04 -75.17)"/><path class="cls-18" d="M1037.92,1263.69s-.78-.45-2.65,2.81c-1.53,2.66-2.34,2.44-6.62,5-8,4.83-2.67,10.64,4.74,13.55,5.29,2.09,8.54-1.27,9.07-3.37C1043.4,1278,1044.55,1270.24,1037.92,1263.69Z" transform="translate(-196.04 -75.17)"/><path class="cls-18" d="M1013.39,1267.59s7,5.24,13.33-4.11c1.34-2,6.81-3.31,7.67-3.94,2.82-2.07,3.77-3.56,3.24-4.68a1.18,1.18,0,0,0-1.52-.52,40.37,40.37,0,0,1-14.26,2.24c-1.43,0-5.45,2.13-6,2.65C1014.12,1260.89,1010.78,1266.53,1013.39,1267.59Z" transform="translate(-196.04 -75.17)"/><path class="cls-7" d="M1336.83,1296.79h158.59c39,0,69.78,10.74,89.29,30.26,15.62,15.61,23.43,34.64,23.43,59,0,38.55-20.5,60-44.89,73.68,39.52,15.13,63.92,38.06,63.92,84.91,0,62.46-50.75,93.69-127.85,93.69H1336.83Zm142.49,138.1c33.18,0,54.16-10.74,54.16-37.09,0-22.44-17.57-35.13-49.29-35.13H1410v72.22Zm20,137.6c33.18,0,53.19-11.71,53.19-38.06,0-22.93-17.08-37.08-55.63-37.08H1410v75.14Z" transform="translate(-196.04 -75.17)"/><path class="cls-7" d="M1689.12,1296.79h81l89.78,144.44,89.79-144.44h81v341.58H1956v-223l-96.13,145.9h-2l-95.15-144.44v221.54h-73.69Z" transform="translate(-196.04 -75.17)"/><path class="cls-7" d="M2116.08,1296.79h75.15v341.58h-75.15Z" transform="translate(-196.04 -75.17)"/><rect class="cls-25" y="1640.95" width="2977.76" height="7.05" rx="3.19"/></svg>